{
  "accessors": [
    {
      "bufferView": 2,
      "componentType": 5126,
      "count": 842,
      "max": [
        5.1997208595275879,
        6.7174949645996094,
        9.0140848159790039
      ],
      "min": [
        -5.1997208595275879,
        -6.7430911064147949,
        -9.1188850402832031
      ],
      "type": "VEC3"
    },
    {
      "bufferView": 2,
      "byteOffset": 10104,
      "componentType": 5126,
      "count": 842,
      "max": [
        0.99880814552307129,
        0.99985253810882568,
        0.99465376138687134
      ],
      "min": [
        -0.99880814552307129,
        -1,
        -0.9997285008430481
      ],
      "type": "VEC3"
    },
    {
      "bufferView": 1,
      "componentType": 5126,
      "count": 842,
      "max": [
        0.98637402057647705,
        0.99098098278045654
      ],
      "min": [
        0.0088360002264380455,
        0.059112001210451126
      ],
      "type": "VEC2"
    },
    {
      "bufferView": 0,
      "componentType": 5125,
      "count": 4626,
      "max": [
        841
      ],
      "min": [
        0
      ],
      "type": "SCALAR"
    },
    {
      "bufferView": 2,
      "byteOffset": 20208,
      "componentType": 5126,
      "count": 9959,
      "max": [
        6.0572662353515625,
        9.5099411010742188,
        10.755197525024414
      ],
      "min": [
        -6.5074939727783203,
        -6.0364861488342285,
        -8.3788032531738281
      ],
      "type": "VEC3"
    },
    {
      "bufferView": 2,
      "byteOffset": 139716,
      "componentType": 5126,
      "count": 9959,
      "max": [
        0.99994689226150513,
        0.99999237060546875,
        0.99954336881637573
      ],
      "min": [
        -0.99981647729873657,
        -0.99965763092041016,
        -0.99570190906524658
      ],
      "type": "VEC3"
    },
    {
      "bufferView": 1,
      "byteOffset": 6736,
      "componentType": 5126,
      "count": 9959,
      "max": [
        0.9972190260887146,
        0.99755901098251343
      ],
      "min": [
        0.002440999960526824,
        0.002440999960526824
      ],
      "type": "VEC2"
    },
    {
      "bufferView": 0,
      "byteOffset": 18504,
      "componentType": 5125,
      "count": 33417,
      "max": [
        9958
      ],
      "min": [
        0
      ],
      "type": "SCALAR"
    },
    {
      "bufferView": 2,
      "byteOffset": 259224,
      "componentType": 5126,
      "count": 1212,
      "max": [
        6.0639100074768066,
        8.9962930679321289,
        10.79575252532959
      ],
      "min": [
        -2.1605930328369141,
        -5.7965478897094727,
        -5.884030818939209
      ],
      "type": "VEC3"
    },
    {
      "bufferView": 2,
      "byteOffset": 273768,
      "componentType": 5126,
      "count": 1212,
      "max": [
        0.9976806640625,
        0.99878787994384766,
        0.99136722087860107
      ],
      "min": [
        -0.98660087585449219,
        -0.99980735778808594,
        -0.96691864728927612
      ],
      "type": "VEC3"
    },
    {
      "bufferView": 1,
      "byteOffset": 86408,
      "componentType": 5126,
      "count": 1212,
      "max": [
        0.99576199054718018,
        0.95483797788619995
      ],
      "min": [
        0.023144999518990517,
        0.002440999960526824
      ],
      "type": "VEC2"
    },
    {
      "bufferView": 0,
      "byteOffset": 152172,
      "componentType": 5125,
      "count": 4032,
      "max": [
        1211
      ],
      "min": [
        0
      ],
      "type": "SCALAR"
    },
    {
      "bufferView": 2,
      "byteOffset": 288312,
      "componentType": 5126,
      "count": 494,
      "max": [
        4.6350951194763184,
        -5.9136509895324707,
        7.7550902366638184
      ],
      "min": [
        -4.9410362243652344,
        -6.7493500709533691,
        6.5282058715820312
      ],
      "type": "VEC3"
    },
    {
      "bufferView": 2,
      "byteOffset": 294240,
      "componentType": 5126,
      "count": 494,
      "max": [
        0.8908047080039978,
        -0.076178014278411865,
        0.99709421396255493
      ],
      "min": [
        -0.89940613508224487,
        -0.99391776323318481,
        -0.4059460461139679
      ],
      "type": "VEC3"
    },
    {
      "bufferView": 1,
      "byteOffset": 96104,
      "componentType": 5126,
      "count": 494,
      "max": [
        0.97692602872848511,
        0.78997898101806641
      ],
      "min": [
        0.022597000002861023,
        0.27818998694419861
      ],
      "type": "VEC2"
    },
    {
      "bufferView": 0,
      "byteOffset": 168300,
      "componentType": 5125,
      "count": 834,
      "max": [
        493
      ],
      "min": [
        0
      ],
      "type": "SCALAR"
    },
    {
      "bufferView": 2,
      "byteOffset": 300168,
      "componentType": 5126,
      "count": 123,
      "max": [
        7.2617669105529785,
        1.1448730230331421,
        7.9892091751098633
      ],
      "min": [
        -6.8503718376159668,
        -7.4722418785095215,
        -5.1274409294128418
      ],
      "type": "VEC3"
    },
    {
      "bufferView": 2,
      "byteOffset": 301644,
      "componentType": 5126,
      "count": 123,
      "max": [
        0.98917490243911743,
        0.92943733930587769,
        0.84262531995773315
      ],
      "min": [
        -0.98862224817276001,
        -0.76553487777709961,
        -0.33154907822608948
      ],
      "type": "VEC3"
    },
    {
      "bufferView": 1,
      "byteOffset": 100056,
      "componentType": 5126,
      "count": 123,
      "max": [
        0,
        0
      ],
      "min": [
        0,
        0
      ],
      "type": "VEC2"
    },
    {
      "bufferView": 0,
      "byteOffset": 171636,
      "componentType": 5125,
      "count": 336,
      "max": [
        122
      ],
      "min": [
        0
      ],
      "type": "SCALAR"
    },
    {
      "bufferView": 2,
      "byteOffset": 303120,
      "componentType": 5126,
      "count": 9993,
      "max": [
        9.0042352676391602,
        4.8317861557006836,
        9.0522699356079102
      ],
      "min": [
        -9.0160751342773438,
        -8.0047016143798828,
        -12.829498291015625
      ],
      "type": "VEC3"
    },
    {
      "bufferView": 2,
      "byteOffset": 423036,
      "componentType": 5126,
      "count": 9993,
      "max": [
        1,
        0.99988454580307007,
        0.99999797344207764
      ],
      "min": [
        -1,
        -0.99999821186065674,
        -0.99999785423278809
      ],
      "type": "VEC3"
    },
    {
      "bufferView": 1,
      "byteOffset": 101040,
      "componentType": 5126,
      "count": 9993,
      "max": [
        0.99002301692962646,
        0.98991900682449341
      ],
      "min": [
        0.00976600032299757,
        0.00976600032299757
      ],
      "type": "VEC2"
    },
    {
      "bufferView": 0,
      "byteOffset": 172980,
      "componentType": 5125,
      "count": 29088,
      "max": [
        9992
      ],
      "min": [
        0
      ],
      "type": "SCALAR"
    },
    {
      "bufferView": 2,
      "byteOffset": 542952,
      "componentType": 5126,
      "count": 8131,
      "max": [
        8.6963424682617188,
        3.7786779403686523,
        9.0522699356079102
      ],
      "min": [
        -9.0023460388183594,
        -7.6807680130004883,
        -13.75858211517334
      ],
      "type": "VEC3"
    },
    {
      "bufferView": 2,
      "byteOffset": 640524,
      "componentType": 5126,
      "count": 8131,
      "max": [
        1,
        0.99998712539672852,
        0.99999797344207764
      ],
      "min": [
        -1,
        -0.99999910593032837,
        -0.99999797344207764
      ],
      "type": "VEC3"
    },
    {
      "bufferView": 1,
      "byteOffset": 180984,
      "componentType": 5126,
      "count": 8131,
      "max": [
        0.98985499143600464,
        0.99023401737213135
      ],
      "min": [
        0.00976600032299757,
        0.00976600032299757
      ],
      "type": "VEC2"
    },
    {
      "bufferView": 0,
      "byteOffset": 289332,
      "componentType": 5125,
      "count": 24702,
      "max": [
        8130
      ],
      "min": [
        0
      ],
      "type": "SCALAR"
    }
  ],
  "asset": {
    "extras": {
      "author": "Eksmanen (https://sketchfab.com/Eksmanen)",
      "license": "CC-BY-4.0 (http://creativecommons.org/licenses/by/4.0/)",
      "source": "https://sketchfab.com/3d-models/thefuture-b5fda59eb51341a58da234c24074d2f0",
      "title": "TheFuture"
    },
    "generator": "Sketchfab-10.25.0",
    "version": "2.0"
  },
  "bufferViews": [
    {
      "buffer": 0,
      "byteLength": 388140,
      "byteOffset": 0,
      "name": "floatBufferViews",
      "target": 34963
    },
    {
      "buffer": 0,
      "byteLength": 246032,
      "byteOffset": 388140,
      "byteStride": 8,
      "name": "floatBufferViews",
      "target": 34962
    },
    {
      "buffer": 0,
      "byteLength": 738096,
      "byteOffset": 634172,
      "byteStride": 12,
      "name": "floatBufferViews",
      "target": 34962
    }
  ],
  "buffers": [
    {
      "byteLength": 1372268,
      "uri": "scene.bin"
    }
  ],
  "extensionsUsed": [
    "KHR_materials_unlit"
  ],
  "images": [
    {
      "uri": "textures/capelliHIcapelliHIlambert2SG_baseColor.png"
    },
    {
      "uri": "textures/capelliHIlambert1SG_baseColor.png"
    },
    {
      "uri": "textures/lambert6SG_baseColor.png"
    },
    {
      "uri": "textures/lambert6SG_emissive.png"
    },
    {
      "uri": "textures/lambert7SG_baseColor.png"
    }
  ],
  "materials": [
    {
      "alphaMode": "OPAQUE",
      "doubleSided": true,
      "extensions": {
        "KHR_materials_unlit": {}
      },
      "name": "capelliHIcapelliHIlambert2SG",
      "pbrMetallicRoughness": {
        "baseColorFactor": [
          1,
          1,
          1,
          1
        ],
        "baseColorTexture": {
          "index": 0,
          "texCoord": 0
        },
        "metallicFactor": 0,
        "roughnessFactor": 1
      }
    },
    {
      "doubleSided": true,
      "extensions": {
        "KHR_materials_unlit": {}
      },
      "name": "capelliHIlambert1SG",
      "pbrMetallicRoughness": {
        "baseColorFactor": [
          1,
          1,
          1,
          1
        ],
        "baseColorTexture": {
          "index": 1,
          "texCoord": 0
        },
        "metallicFactor": 0,
        "roughnessFactor": 1
      }
    },
    {
      "doubleSided": true,
      "emissiveFactor": [
        1,
        1,
        1
      ],
      "emissiveTexture": {
        "index": 3,
        "texCoord": 0
      },
      "extensions": {
        "KHR_materials_unlit": {}
      },
      "name": "lambert6SG",
      "pbrMetallicRoughness": {
        "baseColorFactor": [
          1,
          1,
          1,
          1
        ],
        "baseColorTexture": {
          "index": 2,
          "texCoord": 0
        },
        "metallicFactor": 0,
        "roughnessFactor": 1
      }
    },
    {
      "alphaMode": "OPAQUE",
      "doubleSided": true,
      "extensions": {
        "KHR_materials_unlit": {}
      },
      "name": "lambert7SG",
      "pbrMetallicRoughness": {
        "baseColorFactor": [
          1,
          1,
          1,
          1
        ],
        "baseColorTexture": {
          "index": 4,
          "texCoord": 0
        },
        "metallicFactor": 0,
        "roughnessFactor": 1
      }
    }
  ],
  "meshes": [
    {
      "primitives": [
        {
          "attributes": {
            "NORMAL": 1,
            "POSITION": 0,
            "TEXCOORD_0": 2
          },
          "indices": 3,
          "material": 0,
          "mode": 4
        }
      ]
    },
    {
      "primitives": [
        {
          "attributes": {
            "NORMAL": 5,
            "POSITION": 4,
            "TEXCOORD_0": 6
          },
          "indices": 7,
          "material": 1,
          "mode": 4
        }
      ]
    },
    {
      "primitives": [
        {
          "attributes": {
            "NORMAL": 9,
            "POSITION": 8,
            "TEXCOORD_0": 10
          },
          "indices": 11,
          "material": 1,
          "mode": 4
        }
      ]
    },
    {
      "primitives": [
        {
          "attributes": {
            "NORMAL": 13,
            "POSITION": 12,
            "TEXCOORD_0": 14
          },
          "indices": 15,
          "material": 2,
          "mode": 4
        }
      ]
    },
    {
      "primitives": [
        {
          "attributes": {
            "NORMAL": 17,
            "POSITION": 16,
            "TEXCOORD_0": 18
          },
          "indices": 19,
          "material": 3,
          "mode": 4
        }
      ]
    },
    {
      "primitives": [
        {
          "attributes": {
            "NORMAL": 21,
            "POSITION": 20,
            "TEXCOORD_0": 22
          },
          "indices": 23,
          "material": 3,
          "mode": 4
        }
      ]
    },
    {
      "primitives": [
        {
          "attributes": {
            "NORMAL": 25,
            "POSITION": 24,
            "TEXCOORD_0": 26
          },
          "indices": 27,
          "material": 3,
          "mode": 4
        }
      ]
    }
  ],
  "nodes": [
    {
      "children": [
        1
      ],
      "name": "RootNode (gltf orientation matrix)",
      "rotation": [
        -0.70710678118654746,
        -0,
        -0,
        0.70710678118654757
      ]
    },
    {
      "children": [
        2
      ],
      "name": "RootNode (model correction matrix)"
    },
    {
      "children": [
        3,
        4,
        5,
        6,
        7,
        8,
        9
      ],
      "name": "TheFuture.obj.cleaner.materialmerger.gles"
    },
    {
      "mesh": 0,
      "name": ""
    },
    {
      "mesh": 1,
      "name": ""
    },
    {
      "mesh": 2,
      "name": ""
    },
    {
      "mesh": 3,
      "name": ""
    },
    {
      "mesh": 4,
      "name": ""
    },
    {
      "mesh": 5,
      "name": ""
    },
    {
      "mesh": 6,
      "name": ""
    }
  ],
  "samplers": [
    {
      "magFilter": 9729,
      "minFilter": 9987,
      "wrapS": 10497,
      "wrapT": 10497
    }
  ],
  "scene": 0,
  "scenes": [
    {
      "name": "OSG_Scene",
      "nodes": [
        0
      ]
    }
  ],
  "textures": [
    {
      "sampler": 0,
      "source": 0
    },
    {
      "sampler": 0,
      "source": 1
    },
    {
      "sampler": 0,
      "source": 2
    },
    {
      "sampler": 0,
      "source": 3
    },
    {
      "sampler": 0,
      "source": 4
    }
  ]
}

